<svg width="313" height="200" viewBox="0 0 313 200" fill="none" xmlns="http://www.w3.org/2000/svg">
<mask id="path-1-inside-1_104_5" fill="white">
<path fill-rule="evenodd" clip-rule="evenodd" d="M88.7232 190.397C104.23 200.432 121.823 202.686 138.422 196.764L130.178 153.511C120.998 156.785 111.27 155.539 102.694 149.99C94.1188 144.441 87.2432 134.942 83.2707 123.157C79.2983 111.372 78.4821 98.051 80.9651 85.5256C83.4481 73.0003 89.072 62.0686 96.8526 54.644C104.633 47.2194 114.075 43.7748 123.524 44.9133C132.974 46.0518 141.83 51.7007 148.542 60.8714C155.255 70.042 159.395 82.1501 160.24 95.0764C161.085 108.003 158.579 120.924 153.162 131.577L179.812 156.937C179.838 156.988 179.864 157.039 179.89 157.09L179.931 157.05L179.986 157.102C180.02 157.036 180.053 156.969 180.087 156.902L206.716 131.571C201.3 120.916 198.796 107.995 199.642 95.0692C200.488 82.1435 204.63 70.0364 211.343 60.867C218.055 51.6976 226.912 46.0501 236.361 44.9129C245.811 43.7756 255.252 47.2211 263.032 54.6463C270.812 62.0715 276.435 73.0034 278.917 85.5286C281.4 98.0538 280.583 111.374 276.61 123.159C272.638 134.944 265.762 144.442 257.187 149.99C248.612 155.539 238.883 156.785 229.704 153.511L221.46 196.764C238.058 202.686 255.651 200.432 271.157 190.398C286.664 180.364 299.097 163.189 306.281 141.879C313.465 120.569 314.942 96.4806 310.453 73.831C305.964 51.1815 295.795 31.4132 281.727 17.986C267.658 4.55892 250.586 -1.67163 233.498 0.384864C216.41 2.44136 200.395 12.6539 188.256 29.2351C185.178 33.4392 182.4 37.9849 179.941 42.8096C177.484 37.9879 174.707 33.4449 171.631 29.2429C159.493 12.6594 143.479 2.44438 126.391 0.385671C109.302 -1.67304 92.2293 4.55575 78.1597 17.9818C64.09 31.4079 53.9201 51.1758 49.4301 73.8257C44.9401 96.4755 46.4159 120.564 53.5994 141.875C60.7828 163.187 73.2162 180.363 88.7232 190.397Z"/>
</mask>
<path fill-rule="evenodd" clip-rule="evenodd" d="M88.7232 190.397C104.23 200.432 121.823 202.686 138.422 196.764L130.178 153.511C120.998 156.785 111.27 155.539 102.694 149.99C94.1188 144.441 87.2432 134.942 83.2707 123.157C79.2983 111.372 78.4821 98.051 80.9651 85.5256C83.4481 73.0003 89.072 62.0686 96.8526 54.644C104.633 47.2194 114.075 43.7748 123.524 44.9133C132.974 46.0518 141.83 51.7007 148.542 60.8714C155.255 70.042 159.395 82.1501 160.24 95.0764C161.085 108.003 158.579 120.924 153.162 131.577L179.812 156.937C179.838 156.988 179.864 157.039 179.89 157.09L179.931 157.05L179.986 157.102C180.02 157.036 180.053 156.969 180.087 156.902L206.716 131.571C201.3 120.916 198.796 107.995 199.642 95.0692C200.488 82.1435 204.63 70.0364 211.343 60.867C218.055 51.6976 226.912 46.0501 236.361 44.9129C245.811 43.7756 255.252 47.2211 263.032 54.6463C270.812 62.0715 276.435 73.0034 278.917 85.5286C281.4 98.0538 280.583 111.374 276.61 123.159C272.638 134.944 265.762 144.442 257.187 149.99C248.612 155.539 238.883 156.785 229.704 153.511L221.46 196.764C238.058 202.686 255.651 200.432 271.157 190.398C286.664 180.364 299.097 163.189 306.281 141.879C313.465 120.569 314.942 96.4806 310.453 73.831C305.964 51.1815 295.795 31.4132 281.727 17.986C267.658 4.55892 250.586 -1.67163 233.498 0.384864C216.41 2.44136 200.395 12.6539 188.256 29.2351C185.178 33.4392 182.4 37.9849 179.941 42.8096C177.484 37.9879 174.707 33.4449 171.631 29.2429C159.493 12.6594 143.479 2.44438 126.391 0.385671C109.302 -1.67304 92.2293 4.55575 78.1597 17.9818C64.09 31.4079 53.9201 51.1758 49.4301 73.8257C44.9401 96.4755 46.4159 120.564 53.5994 141.875C60.7828 163.187 73.2162 180.363 88.7232 190.397Z" fill="#FF0101"/>
<path d="M138.422 196.764L144.47 213.718L158.99 208.538L156.104 193.394L138.422 196.764ZM88.7232 190.397L78.9442 205.509L78.9443 205.509L88.7232 190.397ZM130.178 153.511L147.859 150.14L143.924 129.496L124.13 136.557L130.178 153.511ZM102.694 149.99L92.9152 165.102L92.9153 165.102L102.694 149.99ZM83.2707 123.157L66.2136 128.907L66.2137 128.907L83.2707 123.157ZM80.9651 85.5256L63.3087 82.0255L63.3087 82.0255L80.9651 85.5256ZM96.8526 54.644L109.279 67.6663L109.279 67.6663L96.8526 54.644ZM123.524 44.9133L121.371 62.7841L121.371 62.7841L123.524 44.9133ZM148.542 60.8714L163.067 50.2401L163.067 50.2401L148.542 60.8714ZM160.24 95.0764L178.202 93.9027L178.202 93.9027L160.24 95.0764ZM153.162 131.577L137.117 123.419L131.04 135.373L140.754 144.617L153.162 131.577ZM179.812 156.937L195.87 148.805L194.468 146.036L192.221 143.897L179.812 156.937ZM179.89 157.09L163.842 165.243L174.788 186.786L192.296 170.132L179.89 157.09ZM179.931 157.05L192.339 144.009L179.933 132.207L167.526 144.008L179.931 157.05ZM179.986 157.102L167.579 170.143L185.083 186.796L196.031 165.259L179.986 157.102ZM180.087 156.902L167.681 143.861L165.428 146.004L164.024 148.779L180.087 156.902ZM206.716 131.571L219.122 144.612L228.839 135.369L222.762 123.415L206.716 131.571ZM278.917 85.5286L296.574 82.0292L296.574 82.0292L278.917 85.5286ZM276.61 123.159L293.667 128.909L293.667 128.909L276.61 123.159ZM257.187 149.99L247.408 134.878L247.408 134.878L257.187 149.99ZM229.704 153.511L235.752 136.557L215.957 129.496L212.022 150.14L229.704 153.511ZM221.46 196.764L203.778 193.394L200.891 208.538L215.412 213.718L221.46 196.764ZM271.157 190.398L280.936 205.51L280.936 205.51L271.157 190.398ZM306.281 141.879L323.338 147.629L323.338 147.629L306.281 141.879ZM310.453 73.831L328.109 70.3316L328.109 70.3316L310.453 73.831ZM281.727 17.986L269.299 31.0073L269.299 31.0074L281.727 17.986ZM233.498 0.384864L231.347 -17.4862L233.498 0.384864ZM188.256 29.2351L202.78 39.8679L202.78 39.8679L188.256 29.2351ZM179.941 42.8096L163.903 50.9824L179.941 82.4534L195.979 50.9824L179.941 42.8096ZM171.631 29.2429L186.156 18.6116L186.156 18.6116L171.631 29.2429ZM126.391 0.385671L128.544 -17.4851L128.544 -17.4851L126.391 0.385671ZM78.1597 17.9818L65.7331 4.95953L65.7331 4.95953L78.1597 17.9818ZM49.4301 73.8257L31.7737 70.3255L31.7737 70.3255L49.4301 73.8257ZM53.5994 141.875L70.6564 136.126L70.6564 136.126L53.5994 141.875ZM132.374 179.811C121.338 183.748 109.571 182.448 98.5021 175.285L78.9443 205.509C98.89 218.416 122.308 221.624 144.47 213.718L132.374 179.811ZM112.496 156.881L120.741 200.135L156.104 193.394L147.859 150.14L112.496 156.881ZM92.9153 165.102C105.929 173.523 121.483 175.723 136.226 170.464L124.13 136.557C120.514 137.847 116.61 137.555 112.473 134.878L92.9153 165.102ZM66.2137 128.907C71.1936 143.681 80.2317 156.894 92.9152 165.102L112.473 134.878C108.006 131.987 103.293 126.204 100.328 117.408L66.2137 128.907ZM63.3087 82.0255C60.2317 97.5473 61.2097 114.061 66.2136 128.907L100.328 117.408C97.3869 108.683 96.7326 98.5547 98.6215 89.0258L63.3087 82.0255ZM84.426 41.6217C73.4907 52.0567 66.3743 66.5609 63.3087 82.0255L98.6215 89.0258C100.522 79.4396 104.653 72.0805 109.279 67.6663L84.426 41.6217ZM125.677 27.0425C110.152 25.1722 95.5286 31.027 84.426 41.6217L109.279 67.6663C113.738 63.4117 117.997 62.3775 121.371 62.7841L125.677 27.0425ZM163.067 50.2401C154.03 37.893 141.028 28.8919 125.677 27.0425L121.371 62.7841C124.92 63.2117 129.63 65.5084 134.017 71.5026L163.067 50.2401ZM178.202 93.9027C177.166 78.0512 172.073 62.5436 163.067 50.2401L134.017 71.5026C138.437 77.5404 141.625 86.249 142.278 96.25L178.202 93.9027ZM169.208 139.735C176.212 125.96 179.239 109.776 178.202 93.9027L142.278 96.25C142.93 106.23 140.947 115.887 137.117 123.419L169.208 139.735ZM192.221 143.897L165.571 118.538L140.754 144.617L167.404 169.977L192.221 143.897ZM163.754 165.069C163.783 165.127 163.813 165.185 163.842 165.243L195.937 148.936C195.915 148.893 195.893 148.849 195.87 148.805L163.754 165.069ZM192.296 170.132L192.337 170.093L167.526 144.008L167.484 144.048L192.296 170.132ZM192.393 144.061L192.339 144.009L167.524 170.091L167.579 170.143L192.393 144.061ZM164.024 148.779C163.997 148.832 163.97 148.887 163.94 148.945L196.031 165.259C196.07 165.184 196.109 165.106 196.15 165.026L164.024 148.779ZM192.493 169.944L219.122 144.612L194.31 118.529L167.681 143.861L192.493 169.944ZM222.762 123.415C218.933 115.882 216.951 106.224 217.604 96.2446L181.681 93.8939C180.642 109.766 183.667 125.95 190.67 139.727L222.762 123.415ZM217.604 96.2446C218.258 86.244 221.447 77.5365 225.867 71.4998L196.819 50.2342C187.812 62.5363 182.718 78.043 181.681 93.8939L217.604 96.2446ZM225.867 71.4998C230.254 65.5069 234.963 63.211 238.512 62.7839L234.21 27.0418C218.86 28.8892 205.857 37.8884 196.819 50.2342L225.867 71.4998ZM238.512 62.7839C241.886 62.3778 246.146 63.4125 250.604 67.6676L275.459 41.625C264.358 31.0298 249.735 25.1735 234.21 27.0418L238.512 62.7839ZM250.604 67.6676C255.23 72.0824 259.361 79.4419 261.261 89.028L296.574 82.0292C293.509 66.5649 286.393 52.0607 275.459 41.625L250.604 67.6676ZM261.261 89.028C263.149 98.5568 262.495 108.685 259.554 117.409L293.667 128.909C298.672 114.064 299.65 97.5508 296.574 82.0292L261.261 89.028ZM259.554 117.409C256.588 126.205 251.875 131.988 247.408 134.878L266.965 165.102C279.649 156.895 288.687 143.682 293.667 128.909L259.554 117.409ZM247.408 134.878C243.272 137.555 239.368 137.847 235.752 136.557L223.656 170.464C238.398 175.723 253.952 173.523 266.966 165.102L247.408 134.878ZM212.022 150.14L203.778 193.394L239.141 200.135L247.386 156.881L212.022 150.14ZM215.412 213.718C237.573 221.624 260.991 218.416 280.936 205.51L261.379 175.286C250.311 182.448 238.543 183.748 227.507 179.811L215.412 213.718ZM280.936 205.51C300.551 192.818 315.147 171.928 323.338 147.629L289.224 136.129C283.048 154.45 272.777 167.91 261.379 175.286L280.936 205.51ZM323.338 147.629C331.554 123.258 333.192 95.9775 328.109 70.3316L292.796 77.3304C296.691 96.9836 295.377 117.879 289.224 136.129L323.338 147.629ZM328.109 70.3316C323.038 44.743 311.377 21.4023 294.154 4.96474L269.299 31.0074C280.213 41.424 288.89 57.62 292.796 77.3305L328.109 70.3316ZM294.154 4.96475C276.764 -11.6324 254.51 -20.2738 231.347 -17.4862L235.649 18.2559C246.661 16.9305 258.552 20.7503 269.299 31.0073L294.154 4.96475ZM231.347 -17.4862C208.359 -14.7195 188.197 -1.15531 173.732 18.6022L202.78 39.8679C212.594 26.4631 224.462 19.6022 235.649 18.2559L231.347 -17.4862ZM173.732 18.6022C170.054 23.6273 166.775 29.0014 163.903 34.6369L195.979 50.9824C198.024 46.9684 200.303 43.2512 202.78 39.8679L173.732 18.6022ZM157.106 39.8742C159.581 43.2558 161.859 46.9709 163.903 50.9824L195.979 34.6368C193.108 29.0049 189.832 23.634 186.156 18.6116L157.106 39.8742ZM124.238 18.2564C135.425 19.6043 147.293 26.4672 157.106 39.8742L186.156 18.6116C171.693 -1.14827 151.532 -14.7155 128.544 -17.4851L124.238 18.2564ZM90.5863 31.0041C101.334 20.7481 113.225 16.9296 124.238 18.2564L128.544 -17.4851C105.38 -20.2757 83.1248 -11.6366 65.7331 4.95953L90.5863 31.0041ZM67.0865 77.3258C70.9939 57.6152 79.6713 41.4197 90.5863 31.0041L65.7331 4.95953C48.5087 21.396 36.8464 44.7365 31.7737 70.3255L67.0865 77.3258ZM70.6564 136.126C64.5045 117.875 63.1905 96.9792 67.0865 77.3258L31.7737 70.3255C26.6897 95.9718 28.3274 123.253 36.5423 147.625L70.6564 136.126ZM98.5022 175.285C87.1033 167.909 76.8324 154.448 70.6564 136.126L36.5423 147.625C44.7332 171.925 59.329 192.816 78.9442 205.509L98.5022 175.285Z" fill="black" mask="url(#path-1-inside-1_104_5)"/>
<rect x="10" y="62.0001" width="24.7143" height="128" fill="#FF0000" stroke="#050000" stroke-width="20"/>
<rect x="7.5" y="13.5002" width="29.7143" height="23" fill="#030000" stroke="#FF0000" stroke-width="15"/>
</svg>
